<?xml version="1.0" encoding="UTF-8" standalone="no"?>
<!-- Created with Inkscape (http://www.inkscape.org/) -->

<svg
   version="1.1"
   id="svg1"
   width="400"
   height="400"
   viewBox="0 0 400 400"
   xmlns="http://www.w3.org/2000/svg"
   xmlns:svg="http://www.w3.org/2000/svg">
  <defs
     id="defs1" />
  <g
     id="g1">
    <path
       style="fill:#0a0a0a;stroke:none"
       d="m 182.64507,153.58026 h -1 c -6.58907,-12.91541 -21.78836,-22.04599 -34.99924,-26.54013 -26.2379,-8.92575 -54.086583,-12.64902 -80.000765,-22.80402 -8.517536,-3.33777 -17.094746,-6.356468 -25,-11.059388 -6.58345,-3.91656 -12.479984,-9.63214 -20,-11.59646 -5.350931,9.56387 0.138506,21.598478 5.888117,29.999998 12.498278,18.26288 33.721418,32.10463 55.111885,38 v 1 c -13.788393,-3.2675 -27.547819,-9.31808 -40.000002,-16.02777 -3.057873,-1.64771 -11.030754,-7.60889 -14.540895,-5.80093 -7.755232,3.99444 6.65727,20.75674 9.581018,23.8287 18.341919,19.27167 39.708529,23.98082 62.959882,34 -16.654733,1.01582 -35.22939,-7.43538 -51.000005,-12 6.283936,28.79202 45.010022,37.14687 69.000005,42 v 1 l -30.000003,1 c 10.14709,19.54707 38.169743,20.48647 57.000003,23 -15.25787,12.28888 -32.42741,9 -51.000003,9 -9.01564,0 -19.05356,1.29715 -27.96065,-0.14815 -10.553791,-1.71251 -13.313144,-15.00374 -26.039352,-8.85185 1.120869,5.3687 5.043255,6.35205 10,5 11.994823,21.29718 51.483975,11.00226 72.000005,11 v 1 c -6.40923,2.63306 -12.78391,7.04254 -19.71451,8.08487 -7.604203,1.14365 -15.609233,-0.90903 -23.285493,0.10339 -8.366793,1.10349 -15.231958,3.81174 -24.000002,3.81174 -7.944622,0 -22.041515,-8.21216 -27.682098,-1.85187 -5.204579,5.86869 0.22616,13.81543 7.395835,13.51004 4.027535,-0.17154 6.248215,-3.90994 10.04012,-4.64969 5.174343,-1.00946 10.963813,0.32447 16.246143,-0.17822 13.851997,-1.31824 26.994002,-3.15652 41.000005,-2.83026 v 1 c -9.544033,4.19052 -17.970513,12.142 -28.42439,14.31558 -5.80513,1.207 -10.741257,-4.69363 -16.46373,-1.98147 -4.103958,1.94506 -4.009926,6.78839 -4.111885,10.66589 -7.03812,0.55545 -14.975876,2.27869 -21.999229,0.69678 -4.064417,-0.91547 -6.713761,-4.47522 -11.036265,-4.62271 -3.790804,-0.12934 -7.926821,2.00796 -8.567129,6.09646 -1.525323,9.73944 11.24073,12.48886 15.602623,4.82947 18.417652,4.38486 36.854591,-3.19592 54.000002,-9 6.22665,9.6134 25.800033,-0.24054 34.000003,-2 v 1 c -9.00541,2.85071 -24.796503,11.702 -28.000003,21 26.693713,8.96271 49.779943,-18.4068 73.714513,-22.82483 8.19328,-1.51239 19.91333,2.85782 28.28549,3.65509 13.71735,1.30628 27.60857,-0.38953 41,-3.20526 51.24747,-10.77545 83.57791,-54.61818 84.94986,-105.71451 0.23563,-8.77543 1.40594,-19.4274 -0.94986,-27.91049 12.0155,-5.60329 18.13635,-19.8616 28.42438,-27.90585 11.91461,-9.31607 27.27289,-9.09415 41.57562,-9.09415 -0.22867,-25.577728 -38.06418,-30.948858 -57.42438,-32.771608 -5.29538,-0.49856 -11.48837,0.86051 -16.57562,-0.79242 -12.25604,-3.98215 -20.17828,-15.75473 -33.99924,-18.26236 -53.60003,-9.72503 -83.76278,35.323768 -94.00076,81.826388 m 188,-38 c -28.59943,-5.30933 -52.89771,17.22821 -80,21.0918 -7.29865,1.04046 -14.76987,-0.37067 -21.99536,-0.98224 -2.21256,-0.18726 -5.30515,0.0606 -5.17673,3.0139 0.4689,10.78416 18.49643,21.4687 27.16824,24.64351 6.48313,2.37352 12.32398,0.81306 15.00385,8.23303 -3.61255,-2e-5 -1.61096,4.33693 -1.5,7 0.29996,7.19885 1.67499,13.5585 0.5,21 h -1 v -13 h -1 l -3,3 v 19 l -2,5 h -1 l -1,-5 h -2 l -4,7 1,4 -5,10 -7,5 7,-10 1,-5 h -1 l -2,2 4,-3 1,-8 h -1 l -3,8 -3,-2 v 4 l -6,4 v -6 h -1 l -7,8 v -5 l -23,24 4,-9 c 2.30756,-1.56099 2.65051,-1.88324 3,1 h 1 l 2,-6 -3,-1 2,-2 v -1 l -5,-1 2,3 c -4.62083,3.74677 -7.55019,9.76654 -14,10 l 7,-7 -8,4 -1,-1 9,-6 5,-4 4,-14 -3,2 -8,13 h -1 l 2,-3 v -5 c -3.71008,3.57999 -5.29347,8.00195 -11,8 l -3,5 1,-3 -7,5 2,-5 11,-10 h -1 l -1,3 h -4 l 3,-4 v -1 l -4,-3 1,3 -13,5 -3,4 v -3 l 8,-3 3,-6 6,-1 3,-9 -8,6 -11,1 6,-2 -5,-2 1,-5 h -1 l -7,7 4,-7 -5,3 3,-4 -4,-3 h 5 l -1,-3 8,-1 -5,-23 -2,3 h -1 l 1,-8 h -1 v 5 h -1 c -1.85567,-11.08269 -2.61195,-23.58 2,-34 l -3,1 1,-3 c -3.33202,3.94913 -4.46445,7.84775 -4,13 h -1 v -2 h -1 l -3,5 11,-30 -6,5 1,-3 v -7 l 6,-1 1,-1 c -3.05164,-15.953338 22.87549,-31.216558 35.83025,-33.420528 13.84114,-2.35477 28.94902,0.20544 41.08024,7.21606 5.52735,3.19424 9.73789,10.15235 16.08951,11.57483 15.64487,3.503748 31.20923,0.93814 47,6.054808 6.06259,1.96445 14.04062,4.65039 17,10.57483 m -121,8 c 5.25601,-7.52109 11.30127,-18.24121 22,-13.63272 4.73041,2.03763 8.08853,5.96628 13,7.63272 4.34402,-20.317988 -24.23257,-22.939998 -34.65973,-10.81482 -4.16402,4.8421 -8.18568,13.79471 -0.34027,16.81482 m -29,-22 -2,3 2,-3 m -8,6 -1,1 1,-1 m 2,1 -1,2 h 2 l -1,-2 m 4,1 -4,5 4,-5 m -7,1 -3,2 3,-2 m -3,7 1,1 -1,-1 m 4,0 -1,3 h 1 v -3 m -6,3 1,1 -1,-1 m -128.000003,2 -1,1 1,-1 m 125.000003,1 -1,10 -3,-1 4,-9 m 11,1 -3,4 3,-4 m -111,3 -1,1 1,-1 m 2,0 -1,1 1,-1 m 2,2 -1,1 1,-1 m 6,0 c 10.93949,3.46057 22.59895,4.09537 33,9.37346 11.59962,5.88632 19.26605,15.60062 27.14275,25.53703 4.1033,5.17629 10.85965,8.9213 10.85725,16.08951 l 20,12 -2,2 2,3 c -6.6033,-1.1395 -9.80756,-5.28244 -13,-11 l -5,4 -8,-9 c -3.38959,-0.2562 -5.30443,-0.53706 -6,-4 h 1 l 2,3 -1,-2 10,4 c -6.20161,-3.42868 -12.7426,-6.23175 -13,-14 h -1 v 4 h -1 l -1,-4 h -1 l 4,9 -13,-16 h -1 l 2,5 -5,-2 v -1 -3 -1 l 12,9 5,-1 c -1.27646,-2.55292 -7.07079,-8.28316 -6,-4 l -4,-2 v -1 l 3,-3 h -7 l -7,-10 h -6 l -2,-4 c -6.14948,0.36519 -16.66359,-1.44411 -21,-6 4.61514,1.50119 8.43831,3.40939 13,1 l 1,3 3,-1 v 2 l 8,2 c -6.02979,-6.08932 -16.79106,-9.1181 -25,-11 v 1 l 7,3 v 1 c -5.33225,-2.1217 -9.13445,-6.85947 -15,-5 v -4 m -3,1 -1,1 1,-1 m -1,2 -1,1 1,-1 m 102,0 -2,1 v 1 l 2,-2 m -111,1 -1.000003,1 1.000003,-1 m 105,0 1,1 -1,-1 m -4.33333,1.66666 -0.33334,0.66668 0.33334,-0.66668 m 127.33333,-0.66666 c -11.2822,18.35892 -28.21136,23.93607 -47,15 l 22,-2.6196 25,-12.3804 m -223,1.33334 c 0.77336,0 0.16017,0.49781 -0.33334,0.33332 l 0.33334,-0.33332 m 97.66667,0.33332 -0.33334,0.66668 0.33334,-0.66668 m -94.66667,1.33334 -1,1 1,-1 m 23,0 -1,1 1,-1 m -18,1 -1,1 1,-1 m 3,0 2,1 v 1 l -2,-2 m 83,0 -2,3 -1,-1 3,-2 m 8.66667,0.66667 -0.33334,0.66666 0.33334,-0.66666 m -87.66667,1.66666 0.33334,0.33334 c -0.49353,0.16452 -1.1067,-0.33334 -0.33334,-0.33334 m 76,0.66667 -1,1 1,-1 m -86,1 -1,1 1,-1 m 91,0 -1,1 1,-1 m -68,1 -1,1 1,-1 m -26,1 -1,1 1,-1 m 10,0 4,2 v 1 l -5,-2 1,-1 m 30,0 v 2 h 2 v -2 h -2 m -38,1 -1,1 1,-1 m 41,0 8,9 -8,-9 m 46,0 -1,1 1,-1 m 21,0 -1,5 3,-5 h -2 m -104,2 -1,1 1,-1 m 10,0 -1,1 1,-1 m 17,0 -1,1 1,-1 m -22,1.33333 0.33334,0.33334 c -0.49352,0.16451 -1.10672,-0.33334 -0.33334,-0.33334 m 13,-0.33333 -1,1 1,-1 m 66,0 -2,2 2,-2 m -56,1 -1,1 1,-1 m 63.66667,0.66667 -0.33334,0.66666 0.33334,-0.66666 m -119.666673,0.33333 -1,1 1,-1 m 38.000003,0 -1,1 1,-1 m 5,0 v 1 h -3 l 3,-1 m 15,0 12,7 v 1 l -13,-7 1,-1 m -56.000003,1.33333 0.33333,0.33334 c -0.49353,0.16452 -1.10669,-0.33334 -0.33333,-0.33334 m 44.000003,-0.33333 1,2 -1,-2 m 6,0 2,1 v 1 l -2,-2 m 58,0 -1,1 1,-1 m 8,0 -1,9 h -1 l 1,-6 -2,-3 h 3 m -113.000003,1.33333 c 0.77337,0 0.16018,0.49785 -0.33334,0.33334 l 0.33334,-0.33334 m 109.000003,-0.33333 -1,1 1,-1 m 7.66667,1.66667 -0.33334,0.66666 0.33334,-0.66666 m 8.33333,-0.66667 2,2 v -2 h -2 m -91,1 -1,1 1,-1 m 95,0 -1,5 c 3.23726,-0.70816 2.77486,-2.60156 1,-5 m -92,1 -1,1 1,-1 m 72,0 -1,1 1,-1 m -58,1 -1,1 1,-1 m 65,0 -1,1 1,-1 m -59,1 c -0.51691,2.45845 -1.58273,3.52341 -3,1 l 3,-1 m 52.66667,0.66667 -0.33334,0.66666 0.33334,-0.66666 m 14.33333,-0.66667 -1,4 h 1 l 2,-4 h -2 m -64,1 1,2 h -2 l 1,-2 m 8,0 -1,1 1,-1 m 48,0 -1,1 1,-1 m -8,2 -1,1 1,-1 m 8,0 v 7 h -1 l 1,-7 m -5,1 -2,2 v -2 h 2 m 18,0 v 7 h 1 l -1,-7 m -85,1 -1,1 1,-1 m 16,0 1,2 -1,-2 m 53,1 -1,1 1,-1 m 10,0 v 5 l 3,-5 h -3 m -47,1 -1,1 1,-1 m 32,0 -1,1 1,-1 m 3,0 v 3 h -2 v -3 h 2 m 13.66667,0.66667 -0.33334,0.66666 0.33334,-0.66666 m -108.66667,0.33333 -1,1 1,-1 m 98,0 -1,1 1,-1 m -42,1 4,4 -4,-4 m -8,1 h 3 l -1,3 4,4 -6,-7 m 143.33334,0.66667 0.33332,0.66666 -0.33332,-0.66666 m 2.66666,-0.66667 3,3 -1,-3 h -2 m -84,1 c -1.5327,5.18532 -2.19864,11.96291 3,15 l -2,4 c 4.14455,-2.32022 4.17542,-5.63419 5,-10 l -3,5 -3,-14 m -43,1 1,1 -1,-1 m 30,0 1,4 h -1 v -4 m 5,0 v 3 l -3,-1 3,-2 m 5,0 1,1 -1,-1 m -13,2 -1,1 1,-1 m 98,0 1,3 h 1 l -2,-3 m -150,1 -1,1 1,-1 m 14,1 3,3 -4,-2 1,-1 m 16,1 5,4 -5,-4 m 31,0 2,2 v 10 h -1 l 1,-3 -4,-2 2,7 -6,-6 1,-7 4,5 1,-6 m 92,0 v 5 h 1 l -1,-5 m -148,1 -1,1 1,-1 m 48,0 -1,1 1,-1 m 23.33333,0.66667 0.33334,0.66666 -0.33334,-0.66666 m -60.33333,3.33333 4,4 -5,-3 1,-1 m -18,1.33333 c 0.77335,0 0.1602,0.49786 -0.33333,0.33334 l 0.33333,-0.33334 m 154,-0.33333 1,5 h 1 l -2,-5 m -130,1 3,3 -3,-3 m 14,1 v 2 h 2 v -2 h -2 m 114,0 1,1 -1,-1 m 6.66666,0.66667 -0.33332,0.66666 0.33332,-0.66666 m -200.66666,3.33333 v 1 h -4 l 4,-1 m 53,0 -1,1 1,-1 m 2,0 -1,1 1,-1 m 65,0 -1,4 1,-4 m 7.33333,0.66667 0.33334,0.66666 -0.33334,-0.66666 m 65.00001,0 0.33332,0.66666 -0.33332,-0.66666 m -133.33334,0.33333 -1,1 1,-1 m 17,0 v 3 h -1 l 1,-3 m 31,0 -1,1 1,-1 m 2.66667,0.66667 -0.33334,0.66666 0.33334,-0.66666 m -61,1 -0.33334,0.66666 0.33334,-0.66666 m 73.33333,0.33333 -2,4 2,-4 m -44,1 1,2 -1,-2 m 13,2 -1,3 -7,-3 h 8 m 20,-2 -1,1 1,-1 m 20,0 1,1 -1,-1 m -100,1 -1,1 1,-1 m 43,0 3,4 -3,-4 m 40,6 5,-6 -5,6 m 78,-6 -1,5 h 1 v -5 m 6,0 -1,1 1,-1 m -164,1 -1,1 1,-1 m 19,0 -1,1 1,-1 m 15,0 v 1 h -3 l 3,-1 m 25,0 4,3 -4,-3 m 86,0 -1,2 h 2 l -1,-2 m -77,1 v 3 h -1 l 1,-3 m -23,1 7,2 c -2.31244,3.12648 -7.1017,2.18353 -7,-2 m 26,0 -1,1 1,-1 m 32,0 c -1.39049,2.26868 -3.44608,5.88185 -6,4 l -2,4 5,1 1,-1 -2,-1 4,-7 m -18,1 -2,5 -4,4 h 1 c 2.40863,-2.88882 6.31833,-4.92278 5,-9 m 6,4 4,-4 -4,4 m 73,-3 -1,1 1,-1 m -130,1 -1,1 1,-1 m 5,0 1,2 -1,-2 m 16,0 -2,2 2,-2 m 14,0 1,1 -1,-1 m 2,0 4,3 -4,-3 m 53.33334,0.66667 0.33332,0.66666 -0.33332,-0.66666 m -57.33334,2.33333 1,5 -5,-4 h -8 l 1,-3 11,2 m 9,1 4,-2 -4,2 m 31.33333,-2.33333 0.33334,0.66666 -0.33334,-0.66666 m 36.00001,0 0.33332,0.66666 -0.33332,-0.66666 m 12.66666,-0.66667 c -0.34177,4.13356 -0.77905,7.60944 3,10 v -1 -1 l -2,-2 4,-5 -3,4 h -1 l 1,-5 h -2 m -114,1 -1,1 1,-1 m 111,1 -3,9 h 1 l 2,-9 m 12,0 -2,7 2,-7 m -138,2 -1,1 1,-1 m 62,0 -2,3 2,-3 m -60,1 -1,1 1,-1 m 21,1 -1,1 1,-1 m 2,0 h 7 v 4 c -2.63158,-0.37874 -7.59521,-0.64758 -7,-4 m 11,0.33333 c 0.77339,0 0.16017,0.49785 -0.33333,0.33334 l 0.33333,-0.33334 m 78,-0.33333 -4,14 h 1 l 5,-10 -2,-4 m -122,1 -1,1 1,-1 m 12,1 -1,1 1,-1 m 45,1 -1,4 -2,2 h -1 l 4,-6 m 25,0 v 3 l 2,-1 v -1 l -2,-1 m 62.66666,1.66667 -0.33332,0.66666 0.33332,-0.66666 m -98.66666,0.33333 -1,1 1,-1 m 21,0 -11,8 c 2.31516,-4.84512 5.89359,-6.77243 11,-8 m 29,0 -1,2 1,-2 m -22,5 7,-3 c -3.42014,-1.2827 -5.38615,-0.13889 -7,3 m 30,-4 v 2 h 2 v -2 h -2 m 8,0 -1,2 h 2 l -1,-2 m 25,0 -1,6 h -1 l 2,-6 m -107,1.33333 c 0.77335,0 0.1602,0.49786 -0.33333,0.33334 l 0.33333,-0.33334 m 52,-0.33333 -2,4 2,-4 m 2.33333,0.66667 0.33334,0.66666 -0.33334,-0.66666 m 59.66667,-0.66667 v 2 l -2,-2 h 2 m -87,1 -1,1 1,-1 m 59.33334,0.66667 0.33332,0.66666 -0.33332,-0.66666 m 9.66666,-0.66667 -1,4 1,-4 m -16,1 -10,13 -2,-1 -1,6 4,-1 v -1 l -2,-1 11,-10 2,-5 h -2 m -58,1 v 3 h -1 l 1,-3 m 2,0 -1,1 1,-1 m 11,1 -1,1 1,-1 m 29,0 -1,1 1,-1 m 20,0 -4,6 6,-6 h -2 m 24.66666,0.66667 -0.33332,0.66666 0.33332,-0.66666 m 4,0 -0.33332,0.66666 0.33332,-0.66666 m -63.66666,0.33333 -1,2 1,-2 m -30.33333,1.66667 -0.33334,0.66666 0.33334,-0.66666 m 92.33333,-0.66667 -2,2 2,-2 m -84,2 -2,2 2,-2 m 14,0 -1,4 h -1 v -4 h 2 m -29,1 -1,1 1,-1 m 70,2 3,-2 -3,2 m 29,-2 v 1 h -3 l 3,-1 m -108,1 -1,1 1,-1 m 13,0.33333 c 0.77335,0 0.16019,0.49786 -0.33333,0.33334 l 0.33333,-0.33334 m 22,-0.33333 -7,6 -3,2 8,-8 h 2 m 57,0 -8,10 1,2 -7,5 12,-17 h 2 m -52,1 -4,4 2,-4 h 2 m 68,0 -2,2 v -2 h 2 m -46.66667,1.66667 0.33334,0.66666 -0.33334,-0.66666 m -33.33333,0.33333 -1,1 1,-1 m 56,0 -3,6 3,-6 m 9.33334,0.66667 0.33332,0.66666 -0.33332,-0.66666 m 5.66666,-0.66667 -1,1 1,-1 m 6,0 -1,1 1,-1 m 2,1 -1,1 1,-1 m -34,2 -1,1 1,-1 m 3.66666,0.66667 -0.33332,0.66666 0.33332,-0.66666 m 22.33334,-0.66667 -2,3 2,-3 m -77,1 -1,1 1,-1 m 26,0 -1,1 1,-1 m 54,0 2,5 h -1 l -1,-5 m -22,1 -1,1 1,-1 m -61,1 -1,1 1,-1 m 35,0 -1,2 1,-2 m 23,0 v 1 l -4,1 4,-2 m -46,1 -8,8 8,-8 m 13,0 -1,1 1,-1 m 26,0 -2,3 2,-3 m 2,0 2,2 v 1 l -2,1 v -4 m -31,1 -1,1 1,-1 m 59,0 -1,3 h -1 l 2,-3 m -87,1 -1,1 1,-1 m 2,0 -1,1 1,-1 m 17.66667,1.66667 -0.33334,0.66666 0.33334,-0.66666 m 2.33333,0.33333 -1,1 1,-1 m 3,0 -1,1 1,-1 m 5,0 -2,2 2,-2 m 8,0 1,1 -1,-1 m 17,0 -1,1 1,-1 m 16,0 -4,4 4,-4 m -53,1 -1,1 1,-1 m -197.995376,2.04707 c -8.756433,0.75295 -6.504221,14.17095 1.952932,12.97069 8.302285,-1.17831 6.260914,-13.67697 -1.952932,-12.97069 m 199.995376,-1.04707 -1,1 1,-1 m 4,0 -1,1 1,-1 m 33,0 -2,3 2,-3 m 18,0 -1,1 1,-1 m 9,0 -1,1 1,-1 m -62,1 -1,1 1,-1 m 4,0 -4,4 4,-4 m 4,0 -2,2 v -2 h 2 m 51,0 -1,1 1,-1 m 6,0 -1,1 1,-1 m -14,1 -1,1 1,-1 m 4,0 -1,1 1,-1 m -18,1 -1,1 1,-1 m 7,0 -3,3 3,-3 m 20,0 -1,1 1,-1 m -80,1 2,3 3,-2 -2,3 h -1 l -2,-4 m 77.66666,0.66667 -0.33332,0.66666 0.33332,-0.66666 m -53.66666,0.33333 -1,1 1,-1 m -25,1 -1,1 1,-1 m 35,0 -7,7 7,-7 m -218.000005,1 -2,2 v -2 h 2 m 229.000005,0 -1,4 h -3 l 2,-4 h 2 m -70,1 -1,1 1,-1 m 52,0 -2,2 2,-2 m 28,0 -1,1 1,-1 m 21,0 -1,1 1,-1 m -56,1 -1,1 1,-1 m 51,0 -1,1 1,-1 m -53,1 -1,1 1,-1 m 8,3 -1,1 1,-1 m 15,0.33331 c 0.77338,0 0.16017,0.49787 -0.33333,0.33338 l 0.33333,-0.33338 m 26,-0.33331 -1,1 1,-1 m -59,1 -1,1 1,-1 m 12,0 -1,1 1,-1 m -32,1 -1,1 1,-1 m 18,0 -1,1 1,-1 m 12,0 -10,9 10,-9 m 20,0.33331 c 0.77333,0 0.16022,0.49787 -0.33333,0.33338 l 0.33333,-0.33338 m -34,0.66669 -2,2 2,-2 m 33,2 -1,1 -1,-2 -8,6 6,-7 4,2 m 26,-1.66669 0.33334,0.33338 c -0.4935,0.16449 -1.10675,-0.33338 -0.33334,-0.33338 m 5,0.66669 -1,1 1,-1 m -84,1 -1,1 1,-1 m 77,1 -1,3 h -1 l 2,-3 m -78,2 -1,1 1,-1 m 23,0 -1,1 1,-1 m -58,4 -1,1 1,-1 m 43,3 -1,1 1,-1 m -3,2 1,2 h -2 l 1,-2 m 24,1 -1,1 1,-1 m -186.000005,3 -1,5 h -1 l -2,-4 4,-1 m 179.000005,0.33334 c 0.77333,0 0.1602,0.49784 -0.33333,0.33332 l 0.33333,-0.33332 m -2,0.66666 -1,1 1,-1 m 35,0 -1,1 1,-1 m -98,4 -1,1 1,-1 m 1,3 -1,1 1,-1 m -88.000005,13 1,1 -3,2 2,-3 m 56.000005,0 -1,1 1,-1 m -97.000005,8 -1,4 h -1 l -1,-4 h 3 m 52.104942,10.75772 c -8.247139,3.21985 -2.975761,16.04407 4.83719,12.17438 7.15793,-3.54526 2.98522,-15.22843 -4.83719,-12.17438 m 2.89506,6.24228 -1,1 z"
       id="path1" />
  </g>
</svg>
